<?xml version="1.0" standalone="no"?>
<!DOCTYPE svg PUBLIC "-//W3C//DTD SVG 20010904//EN"
 "http://www.w3.org/TR/2001/REC-SVG-20010904/DTD/svg10.dtd">
<svg version="1.0" xmlns="http://www.w3.org/2000/svg"
 width="32.000000pt" height="29.000000pt" viewBox="0 0 32.000000 29.000000"
 preserveAspectRatio="xMidYMid meet">

<g transform="translate(0.000000,29.000000) scale(0.100000,-0.100000)"
fill="#000000" stroke="none">
<path d="M86 260 c-7 -17 -15 -27 -19 -24 -3 4 -20 1 -37 -6 -34 -14 -40 -44
-11 -59 15 -9 20 -7 24 9 6 23 29 26 46 6 10 -11 7 -17 -10 -29 -17 -13 -20
-21 -14 -44 3 -15 13 -36 22 -45 21 -23 8 -56 -25 -61 -15 -2 29 -4 98 -3 120
1 125 2 128 23 2 14 -10 36 -32 61 -20 22 -36 46 -36 55 0 9 -4 19 -10 22 -5
3 -10 13 -10 21 0 17 27 19 32 2 6 -17 28 0 28 23 0 10 -6 19 -13 19 -7 0 -26
14 -42 30 -22 23 -38 30 -67 30 -34 0 -41 -4 -52 -30z"/>
</g>
</svg>
